<svg width="36" height="36" viewBox="0 0 36 36" fill="none" xmlns="http://www.w3.org/2000/svg">
    <rect width="36" height="36" rx="18" fill="#B9CDF4"/>
    <path d="M21.9993 16.666H19.3327V13.9993C19.3327 13.6457 19.1922 13.3066 18.9422 13.0565C18.6921 12.8065 18.353 12.666 17.9993 12.666C17.6457 12.666 17.3066 12.8065 17.0565 13.0565C16.8065 13.3066 16.666 13.6457 16.666 13.9993L16.7133 16.666H13.9993C13.6457 16.666 13.3066 16.8065 13.0565 17.0565C12.8065 17.3066 12.666 17.6457 12.666 17.9993C12.666 18.353 12.8065 18.6921 13.0565 18.9422C13.3066 19.1922 13.6457 19.3327 13.9993 19.3327L16.7133 19.2853L16.666 21.9993C16.666 22.353 16.8065 22.6921 17.0565 22.9422C17.3066 23.1922 17.6457 23.3327 17.9993 23.3327C18.353 23.3327 18.6921 23.1922 18.9422 22.9422C19.1922 22.6921 19.3327 22.353 19.3327 21.9993V19.2853L21.9993 19.3327C22.353 19.3327 22.6921 19.1922 22.9422 18.9422C23.1922 18.6921 23.3327 18.353 23.3327 17.9993C23.3327 17.6457 23.1922 17.3066 22.9422 17.0565C22.6921 16.8065 22.353 16.666 21.9993 16.666Z" fill="#1D5EDD"/>
    </svg>
    