<svg width="162" height="40" viewBox="0 0 162 40" fill="none" xmlns="http://www.w3.org/2000/svg">
<rect x="0.5" y="0.5" width="161" height="39" rx="19.5" fill="#E8EFFC"/>
<rect x="0.5" y="0.5" width="161" height="39" rx="19.5" stroke="#1D5EDD"/>
<path d="M26.5 11.25H25.25V27.5C25.25 27.8315 25.3817 28.1495 25.6161 28.3839C25.8505 28.6183 26.1685 28.75 26.5 28.75H42.75V27.5H26.5V11.25Z" fill="#1D5EDD"/>
<path d="M42.75 15.625H38.375V16.875H40.6187L35.875 21.6188L33.1937 18.9313C33.1356 18.8727 33.0665 18.8262 32.9904 18.7944C32.9142 18.7627 32.8325 18.7464 32.75 18.7464C32.6675 18.7464 32.5858 18.7627 32.5096 18.7944C32.4335 18.8262 32.3644 18.8727 32.3063 18.9313L27.75 23.4938L28.6312 24.375L32.75 20.2562L35.4313 22.9437C35.4894 23.0023 35.5585 23.0488 35.6346 23.0806C35.7108 23.1123 35.7925 23.1286 35.875 23.1286C35.9575 23.1286 36.0392 23.1123 36.1154 23.0806C36.1915 23.0488 36.2606 23.0023 36.3187 22.9437L41.5 17.7562V20H42.75V15.625Z" fill="#1D5EDD"/>
<path d="M60.684 25L57.66 16.502H57.604C57.6133 16.6887 57.6273 16.9407 57.646 17.258C57.6647 17.5753 57.6787 17.916 57.688 18.28C57.6973 18.644 57.702 19.0033 57.702 19.358V25H56.33V15.004H58.486L61.356 23.026H61.412L64.366 15.004H66.522V25H65.052V19.274C65.052 18.9473 65.0567 18.6113 65.066 18.266C65.0847 17.9113 65.0987 17.58 65.108 17.272C65.1267 16.964 65.1407 16.712 65.15 16.516H65.094L61.986 25H60.684ZM67.8656 17.454H69.4616L71.0296 21.738C71.1136 21.9527 71.1882 22.1627 71.2536 22.368C71.3189 22.5733 71.3749 22.7787 71.4216 22.984C71.4776 23.18 71.5196 23.376 71.5476 23.572H71.6036C71.6502 23.3293 71.7249 23.0447 71.8276 22.718C71.9302 22.382 72.0376 22.0507 72.1496 21.724L73.6336 17.454H75.2296L71.9956 26.022C71.8182 26.5073 71.5989 26.9227 71.3376 27.268C71.0762 27.6227 70.7636 27.8933 70.3996 28.08C70.0449 28.2667 69.6249 28.36 69.1396 28.36C68.9062 28.36 68.7056 28.346 68.5376 28.318C68.3696 28.2993 68.2249 28.276 68.1036 28.248V27.072C68.2062 27.0907 68.3276 27.1093 68.4676 27.128C68.6169 27.1467 68.7709 27.156 68.9296 27.156C69.2189 27.156 69.4662 27.1 69.6716 26.988C69.8862 26.876 70.0636 26.7173 70.2036 26.512C70.3529 26.3067 70.4789 26.0733 70.5816 25.812L70.8896 25L67.8656 17.454ZM82.9591 17.314C83.9111 17.314 84.6204 17.524 85.0871 17.944C85.5538 18.3547 85.7871 19.0033 85.7871 19.89V25H84.7371L84.4431 23.95H84.3871C84.1724 24.2207 83.9484 24.4447 83.7151 24.622C83.4911 24.7993 83.2298 24.93 82.9311 25.014C82.6418 25.098 82.2871 25.14 81.8671 25.14C81.4191 25.14 81.0131 25.0607 80.6491 24.902C80.2944 24.734 80.0144 24.482 79.8091 24.146C79.6038 23.8007 79.5011 23.3713 79.5011 22.858C79.5011 22.0927 79.7904 21.5093 80.3691 21.108C80.9571 20.7067 81.8484 20.4873 83.0431 20.45L84.3311 20.408V19.988C84.3311 19.428 84.2051 19.036 83.9531 18.812C83.7011 18.588 83.3464 18.476 82.8891 18.476C82.4971 18.476 82.1238 18.532 81.7691 18.644C81.4144 18.756 81.0784 18.8913 80.7611 19.05L80.2851 17.972C80.6398 17.7853 81.0458 17.6313 81.5031 17.51C81.9698 17.3793 82.4551 17.314 82.9591 17.314ZM83.3091 21.402C82.4504 21.4393 81.8531 21.584 81.5171 21.836C81.1904 22.0787 81.0271 22.424 81.0271 22.872C81.0271 23.264 81.1438 23.5487 81.3771 23.726C81.6198 23.9033 81.9231 23.992 82.2871 23.992C82.8751 23.992 83.3604 23.8287 83.7431 23.502C84.1258 23.1753 84.3171 22.6853 84.3171 22.032V21.374L83.3091 21.402ZM91.8942 17.314C92.7715 17.314 93.4435 17.5333 93.9102 17.972C94.3768 18.4107 94.6102 19.1153 94.6102 20.086V25H93.1402V20.296C93.1402 19.708 93.0142 19.2693 92.7622 18.98C92.5195 18.6813 92.1275 18.532 91.5862 18.532C90.8208 18.532 90.2888 18.7607 89.9902 19.218C89.7008 19.6753 89.5562 20.3333 89.5562 21.192V25H88.0722V17.454H89.2482L89.4582 18.462H89.5422C89.7102 18.2007 89.9155 17.986 90.1582 17.818C90.4008 17.65 90.6715 17.524 90.9702 17.44C91.2688 17.356 91.5768 17.314 91.8942 17.314ZM99.8165 17.314C100.769 17.314 101.478 17.524 101.945 17.944C102.411 18.3547 102.645 19.0033 102.645 19.89V25H101.595L101.301 23.95H101.245C101.03 24.2207 100.806 24.4447 100.573 24.622C100.349 24.7993 100.087 24.93 99.7885 25.014C99.4992 25.098 99.1445 25.14 98.7245 25.14C98.2765 25.14 97.8705 25.0607 97.5065 24.902C97.1518 24.734 96.8718 24.482 96.6665 24.146C96.4612 23.8007 96.3585 23.3713 96.3585 22.858C96.3585 22.0927 96.6478 21.5093 97.2265 21.108C97.8145 20.7067 98.7058 20.4873 99.9005 20.45L101.189 20.408V19.988C101.189 19.428 101.063 19.036 100.811 18.812C100.559 18.588 100.204 18.476 99.7465 18.476C99.3545 18.476 98.9812 18.532 98.6265 18.644C98.2718 18.756 97.9358 18.8913 97.6185 19.05L97.1425 17.972C97.4972 17.7853 97.9032 17.6313 98.3605 17.51C98.8272 17.3793 99.3125 17.314 99.8165 17.314ZM100.167 21.402C99.3078 21.4393 98.7105 21.584 98.3745 21.836C98.0478 22.0787 97.8845 22.424 97.8845 22.872C97.8845 23.264 98.0012 23.5487 98.2345 23.726C98.4772 23.9033 98.7805 23.992 99.1445 23.992C99.7325 23.992 100.218 23.8287 100.601 23.502C100.983 23.1753 101.175 22.6853 101.175 22.032V21.374L100.167 21.402ZM106.414 25H104.93V14.36H106.414V25ZM107.596 17.454H109.192L110.76 21.738C110.844 21.9527 110.919 22.1627 110.984 22.368C111.049 22.5733 111.105 22.7787 111.152 22.984C111.208 23.18 111.25 23.376 111.278 23.572H111.334C111.381 23.3293 111.455 23.0447 111.558 22.718C111.661 22.382 111.768 22.0507 111.88 21.724L113.364 17.454H114.96L111.726 26.022C111.549 26.5073 111.329 26.9227 111.068 27.268C110.807 27.6227 110.494 27.8933 110.13 28.08C109.775 28.2667 109.355 28.36 108.87 28.36C108.637 28.36 108.436 28.346 108.268 28.318C108.1 28.2993 107.955 28.276 107.834 28.248V27.072C107.937 27.0907 108.058 27.1093 108.198 27.128C108.347 27.1467 108.501 27.156 108.66 27.156C108.949 27.156 109.197 27.1 109.402 26.988C109.617 26.876 109.794 26.7173 109.934 26.512C110.083 26.3067 110.209 26.0733 110.312 25.812L110.62 25L107.596 17.454ZM118.843 23.936C119.039 23.936 119.24 23.9173 119.445 23.88C119.65 23.8427 119.828 23.8007 119.977 23.754V24.874C119.818 24.9487 119.604 25.0093 119.333 25.056C119.062 25.112 118.792 25.14 118.521 25.14C118.11 25.14 117.732 25.07 117.387 24.93C117.051 24.79 116.78 24.5473 116.575 24.202C116.37 23.8567 116.267 23.376 116.267 22.76V18.588H115.217V17.916L116.323 17.356L116.841 15.76H117.751V17.454H119.907V18.588H117.751V22.732C117.751 23.1427 117.849 23.446 118.045 23.642C118.25 23.838 118.516 23.936 118.843 23.936ZM122.97 17.454V25H121.486V17.454H122.97ZM122.242 14.584C122.466 14.584 122.662 14.6493 122.83 14.78C122.998 14.9107 123.082 15.13 123.082 15.438C123.082 15.7367 122.998 15.956 122.83 16.096C122.662 16.2267 122.466 16.292 122.242 16.292C122 16.292 121.794 16.2267 121.626 16.096C121.468 15.956 121.388 15.7367 121.388 15.438C121.388 15.13 121.468 14.9107 121.626 14.78C121.794 14.6493 122 14.584 122.242 14.584ZM128.339 25.14C127.648 25.14 127.041 25.0047 126.519 24.734C125.996 24.4633 125.59 24.0433 125.301 23.474C125.011 22.8953 124.867 22.1627 124.867 21.276C124.867 20.3427 125.021 19.5867 125.329 19.008C125.646 18.4293 126.071 18.0047 126.603 17.734C127.144 17.454 127.76 17.314 128.451 17.314C128.871 17.314 129.263 17.3607 129.627 17.454C130 17.538 130.308 17.636 130.551 17.748L130.103 18.952C129.841 18.8493 129.561 18.7607 129.263 18.686C128.973 18.6113 128.698 18.574 128.437 18.574C127.97 18.574 127.583 18.6767 127.275 18.882C126.976 19.078 126.752 19.3767 126.603 19.778C126.463 20.17 126.393 20.6647 126.393 21.262C126.393 21.8313 126.467 22.312 126.617 22.704C126.766 23.096 126.985 23.3947 127.275 23.6C127.573 23.796 127.942 23.894 128.381 23.894C128.801 23.894 129.169 23.8473 129.487 23.754C129.804 23.6607 130.103 23.5393 130.383 23.39V24.678C130.112 24.8367 129.818 24.9533 129.501 25.028C129.183 25.1027 128.796 25.14 128.339 25.14ZM137.176 22.872C137.176 23.3667 137.055 23.782 136.812 24.118C136.569 24.454 136.219 24.7107 135.762 24.888C135.305 25.056 134.754 25.14 134.11 25.14C133.578 25.14 133.121 25.098 132.738 25.014C132.365 24.9393 132.019 24.8273 131.702 24.678V23.376C132.038 23.5347 132.425 23.6793 132.864 23.81C133.303 23.9313 133.732 23.992 134.152 23.992C134.712 23.992 135.113 23.9033 135.356 23.726C135.608 23.5487 135.734 23.3107 135.734 23.012C135.734 22.844 135.687 22.6947 135.594 22.564C135.501 22.424 135.323 22.284 135.062 22.144C134.81 21.9947 134.437 21.8267 133.942 21.64C133.466 21.444 133.06 21.2527 132.724 21.066C132.388 20.87 132.131 20.6413 131.954 20.38C131.777 20.1093 131.688 19.764 131.688 19.344C131.688 18.6907 131.949 18.1913 132.472 17.846C133.004 17.4913 133.704 17.314 134.572 17.314C135.029 17.314 135.459 17.3607 135.86 17.454C136.271 17.538 136.667 17.6687 137.05 17.846L136.56 18.98C136.345 18.8773 136.121 18.7933 135.888 18.728C135.664 18.6533 135.435 18.5927 135.202 18.546C134.978 18.4993 134.745 18.476 134.502 18.476C134.054 18.476 133.713 18.546 133.48 18.686C133.247 18.826 133.13 19.022 133.13 19.274C133.13 19.4513 133.181 19.6053 133.284 19.736C133.396 19.8667 133.587 19.9973 133.858 20.128C134.129 20.2587 134.497 20.4173 134.964 20.604C135.431 20.7813 135.827 20.9633 136.154 21.15C136.49 21.3367 136.742 21.5653 136.91 21.836C137.087 22.1067 137.176 22.452 137.176 22.872Z" fill="#15439D"/>
</svg>
