<svg width="48" height="48" viewBox="0 0 48 48" fill="none" xmlns="http://www.w3.org/2000/svg">
<g id="clarity:avatar-solid" clip-path="url(#clip0_1190_22812)">
<path id="Vector" d="M40.8146 32.6931C38.6722 30.3718 36.0722 28.5193 33.1786 27.2522C30.2849 25.9852 27.1602 25.3311 24.0013 25.3311C20.8424 25.3311 17.7177 25.9852 14.824 27.2522C11.9304 28.5193 9.33044 30.3718 7.18797 32.6931C6.85719 33.0589 6.67216 33.5333 6.66797 34.0265V42.0265C6.67498 42.5523 6.88878 43.0541 7.2631 43.4235C7.63742 43.7928 8.14212 43.9998 8.66797 43.9998H39.3346C39.8651 43.9998 40.3738 43.7891 40.7488 43.414C41.1239 43.0389 41.3346 42.5302 41.3346 41.9998V33.9998C41.324 33.5159 41.1394 33.052 40.8146 32.6931Z" fill="#97B5EF"/>
<path id="Vector_2" d="M24.0013 22.6667C29.156 22.6667 33.3346 18.488 33.3346 13.3333C33.3346 8.17868 29.156 4 24.0013 4C18.8466 4 14.668 8.17868 14.668 13.3333C14.668 18.488 18.8466 22.6667 24.0013 22.6667Z" fill="#97B5EF"/>
</g>
<defs>
<clipPath id="clip0_1190_22812">
<rect width="48" height="48" fill="white"/>
</clipPath>
</defs>
</svg>
