<svg width="16" height="17" viewBox="0 0 16 17" fill="none" xmlns="http://www.w3.org/2000/svg">
<g id="Icon">
<path id="Vector (Stroke)" fill-rule="evenodd" clip-rule="evenodd" d="M3.6752 4.54776C4.13082 4.09215 4.86951 4.09215 5.32512 4.54776L8.00016 7.22281L10.6752 4.54776C11.1308 4.09215 11.8695 4.09215 12.3251 4.54776C12.7807 5.00338 12.7807 5.74207 12.3251 6.19768L9.65008 8.87272L12.3251 11.5478C12.7807 12.0034 12.7807 12.7421 12.3251 13.1977C11.8695 13.6533 11.1308 13.6533 10.6752 13.1977L8.00016 10.5226L5.32512 13.1977C4.86951 13.6533 4.13082 13.6533 3.6752 13.1977C3.21959 12.7421 3.21959 12.0034 3.6752 11.5478L6.35025 8.87272L3.6752 6.19768C3.21959 5.74207 3.21959 5.00338 3.6752 4.54776Z" fill="#97B5EF"/>
</g>
</svg>
