<svg width="48" height="48" viewBox="0 0 48 48" fill="none" xmlns="http://www.w3.org/2000/svg">
<g id="Icon">
<path id="Union" fill-rule="evenodd" clip-rule="evenodd" d="M8.00549 38.795V38.7949C7.99921 38.437 7.99315 38.0918 8.01867 37.7492C8.06534 37.116 8.62214 36.625 9.28501 36.6006C9.59992 36.589 9.91484 36.5918 10.2447 36.5947H10.2448C10.3971 36.596 10.5525 36.5974 10.7125 36.5974V36.0448C10.7125 33.942 10.7133 31.8393 10.714 29.7365V29.7365C10.7163 23.0781 10.7187 16.4201 10.6977 9.76149C10.6935 8.55454 11.4306 8.01683 12.3915 8.06031C13.0875 8.09195 13.7856 8.0848 14.5027 8.07745H14.5027C14.8193 8.0742 15.1396 8.07092 15.465 8.07092V6.34429C15.465 6.24979 15.4643 6.15519 15.4636 6.06056C15.4619 5.82386 15.4602 5.58692 15.4693 5.35053C15.499 4.55721 16.0473 4.01207 16.8448 4.00571C17.7087 3.9982 18.5721 3.99973 19.4357 4.00126C19.7913 4.00189 20.147 4.00253 20.5028 4.00253H28.8135C29.8645 4.00253 30.381 4.51267 30.3842 5.55628C30.3863 6.09922 30.3856 6.64263 30.3849 7.1964V7.19743V7.19841C30.3846 7.47908 30.3842 7.76242 30.3842 8.04971C30.4482 8.05242 30.5077 8.05571 30.5643 8.05883L30.5643 8.05883C30.6624 8.06425 30.7519 8.06919 30.8413 8.06986C31.1913 8.07064 31.5412 8.06985 31.8911 8.06906H31.8913H31.8914C32.4958 8.06769 33.1 8.06632 33.7038 8.07304C34.5841 8.08365 35.1378 8.64575 35.1388 9.52922C35.1415 13.4036 35.1404 17.2787 35.1394 21.1539V21.16L35.1388 23.4865C35.1388 23.5548 35.1333 23.6231 35.1271 23.6999L35.1271 23.7C35.1239 23.74 35.1205 23.7822 35.1176 23.828C33.9881 23.6148 32.8893 23.6572 31.7598 24.039V22.3633H24.9742V25.0466H29.8985C29.8045 25.1455 29.7136 25.2345 29.6276 25.3187C29.4507 25.492 29.2944 25.6452 29.173 25.8229C28.8082 26.3554 28.4625 26.9047 28.1591 27.4732C28.0393 27.697 27.9332 27.7787 27.6882 27.7744C27.073 27.7634 26.4577 27.7659 25.843 27.7685H25.8427C25.6893 27.7691 25.5359 27.7697 25.3825 27.7702C25.2944 27.7702 25.2058 27.7757 25.1116 27.7815L25.1115 27.7815C25.0685 27.7842 25.0243 27.7869 24.9784 27.7893V30.4736H27.6882C28.0987 32.249 28.2281 32.5311 29.2399 33.8876C29.1782 33.9387 29.1159 33.9893 29.0536 34.0399C28.9222 34.1468 28.7906 34.2537 28.664 34.3659C27.2619 35.6015 26.4431 37.1775 26.003 38.9678C25.9425 39.2149 25.8608 39.3135 25.5915 39.3135C20.4667 39.3069 15.342 39.307 10.2166 39.3072H10.2165L8.29442 39.3072C8.24451 39.3072 8.19415 39.3041 8.13057 39.3002L8.13052 39.3002C8.09549 39.298 8.05644 39.2957 8.01125 39.2934V39.2923C8.01125 39.1232 8.00834 38.9578 8.00549 38.795ZM20.8719 22.3527H14.1329V25.0275H20.8719V22.3527ZM20.8634 14.1703V11.4987H14.1361V14.1703H20.8634ZM24.9784 14.1618H31.7174V11.4945H24.9784V14.1618ZM20.8634 19.5941V16.9215H14.1361V19.5941H20.8623H20.8634ZM24.9806 19.5867H31.7163V16.9162H24.9806V19.5867ZM20.8825 27.8009H14.1297V30.446H20.8825V27.8009ZM39.1987 42H28.4137C28.0159 39.602 29.5357 36.555 31.5604 35.6662C34.4356 34.4041 37.5156 35.6821 38.6324 38.6093C39.0428 39.6847 39.2167 40.8036 39.1987 42ZM37.1827 29.8065C37.1912 27.9462 35.6745 26.4232 33.8037 26.4137V26.4126C31.9307 26.4041 30.4141 27.8943 30.3886 29.7694C30.3631 31.6169 31.8925 33.1728 33.7475 33.1897C35.6289 33.2067 37.1742 31.6858 37.1827 29.8065Z" fill="#97B5EF"/>
</g>
</svg>
