<svg width="24" height="24" viewBox="0 0 24 24" fill="none" xmlns="http://www.w3.org/2000/svg">
<g id="Icon">
<path id="Vector" d="M3.4 5H10.4C10.7713 5 11.1274 5.1475 11.3899 5.41005C11.6525 5.6726 11.8 6.0287 11.8 6.4C11.8 6.7713 11.6525 7.1274 11.3899 7.38995C11.1274 7.6525 10.7713 7.8 10.4 7.8H3.4C3.0287 7.8 2.6726 7.6525 2.41005 7.38995C2.1475 7.1274 2 6.7713 2 6.4C2 6.0287 2.1475 5.6726 2.41005 5.41005C2.6726 5.1475 3.0287 5 3.4 5ZM13.2 16.2H20.2C20.5713 16.2 20.9274 16.3475 21.1899 16.6101C21.4525 16.8726 21.6 17.2287 21.6 17.6C21.6 17.9713 21.4525 18.3274 21.1899 18.5899C20.9274 18.8525 20.5713 19 20.2 19H13.2C12.8287 19 12.4726 18.8525 12.2101 18.5899C11.9475 18.3274 11.8 17.9713 11.8 17.6C11.8 17.2287 11.9475 16.8726 12.2101 16.6101C12.4726 16.3475 12.8287 16.2 13.2 16.2ZM3.4 10.6H20.2C20.5713 10.6 20.9274 10.7475 21.1899 11.0101C21.4525 11.2726 21.6 11.6287 21.6 12C21.6 12.3713 21.4525 12.7274 21.1899 12.9899C20.9274 13.2525 20.5713 13.4 20.2 13.4H3.4C3.0287 13.4 2.6726 13.2525 2.41005 12.9899C2.1475 12.7274 2 12.3713 2 12C2 11.6287 2.1475 11.2726 2.41005 11.0101C2.6726 10.7475 3.0287 10.6 3.4 10.6Z" fill="#1A56C9"/>
</g>
</svg>
