<svg width="37" height="36" viewBox="0 0 37 36" fill="none" xmlns="http://www.w3.org/2000/svg">
    <rect x="0.5" width="36" height="36" rx="16" fill="#E8EFFC" />
    <path
        d="M26 9H11C10.2046 9.00087 9.44206 9.31722 8.87964 9.87964C8.31722 10.4421 8.00087 11.2046 8 12V24C8.00087 24.7954 8.31722 25.5579 8.87964 26.1204C9.44206 26.6828 10.2046 26.9991 11 27H26C26.7954 26.9991 27.5579 26.6828 28.1204 26.1204C28.6828 25.5579 28.9991 24.7954 29 24V12C28.9991 11.2046 28.6828 10.4421 28.1204 9.87964C27.5579 9.31722 26.7954 9.00087 26 9ZM22.25 12C22.695 12 23.13 12.132 23.5 12.3792C23.87 12.6264 24.1584 12.9778 24.3287 13.389C24.499 13.8001 24.5436 14.2525 24.4568 14.689C24.37 15.1254 24.1557 15.5263 23.841 15.841C23.5263 16.1557 23.1254 16.37 22.689 16.4568C22.2525 16.5436 21.8001 16.499 21.389 16.3287C20.9778 16.1584 20.6264 15.87 20.3792 15.5C20.132 15.13 20 14.695 20 14.25C20.0006 13.6535 20.2379 13.0815 20.6597 12.6597C21.0815 12.2379 21.6535 12.0006 22.25 12ZM11 25.5C10.6022 25.5 10.2206 25.342 9.93934 25.0607C9.65804 24.7794 9.5 24.3978 9.5 24V20.8298L13.9456 16.8783C14.3746 16.4979 14.9324 16.2953 15.5055 16.3119C16.0785 16.3284 16.6237 16.5628 17.03 16.9673L20.0745 20.0053L14.5798 25.5H11ZM27.5 24C27.5 24.3978 27.342 24.7794 27.0607 25.0607C26.7794 25.342 26.3978 25.5 26 25.5H16.7014L22.393 19.8084C22.7959 19.4657 23.3073 19.277 23.8363 19.2756C24.3653 19.2742 24.8776 19.4603 25.2823 19.8009L27.5 21.6488V24Z"
        fill="#1D5EDD" />
</svg>
    