<svg width="17" height="16" viewBox="0 0 17 16" fill="none" xmlns="http://www.w3.org/2000/svg">
<g id="Icon">
<path id="Vector" d="M13.75 2H3.75C3.21974 2.00058 2.71137 2.21148 2.33643 2.58643C1.96148 2.96137 1.75058 3.46974 1.75 4V12C1.75058 12.5303 1.96148 13.0386 2.33643 13.4136C2.71137 13.7885 3.21974 13.9994 3.75 14H13.75C14.2803 13.9994 14.7886 13.7885 15.1636 13.4136C15.5385 13.0386 15.7494 12.5303 15.75 12V4C15.7494 3.46974 15.5385 2.96137 15.1636 2.58643C14.7886 2.21148 14.2803 2.00058 13.75 2ZM11.25 4C11.5467 4 11.8367 4.08797 12.0834 4.2528C12.33 4.41762 12.5223 4.65189 12.6358 4.92597C12.7494 5.20006 12.7791 5.50166 12.7212 5.79264C12.6633 6.08361 12.5204 6.35088 12.3107 6.56066C12.1009 6.77044 11.8336 6.9133 11.5426 6.97118C11.2517 7.02906 10.9501 6.99935 10.676 6.88582C10.4019 6.77229 10.1676 6.58003 10.0028 6.33336C9.83797 6.08668 9.75 5.79667 9.75 5.5C9.75041 5.1023 9.90858 4.72101 10.1898 4.4398C10.471 4.15858 10.8523 4.00041 11.25 4ZM3.75 13C3.48478 13 3.23043 12.8946 3.04289 12.7071C2.85536 12.5196 2.75 12.2652 2.75 12V9.88656L5.71375 7.25219C5.9997 6.99858 6.37159 6.86354 6.75364 6.87457C7.13569 6.8856 7.49916 7.04188 7.77 7.31156L9.79969 9.33687L6.13656 13H3.75ZM14.75 12C14.75 12.2652 14.6446 12.5196 14.4571 12.7071C14.2696 12.8946 14.0152 13 13.75 13H7.55094L11.3453 9.20562C11.614 8.97717 11.9549 8.8513 12.3075 8.85039C12.6602 8.84947 13.0017 8.97356 13.2716 9.20063L14.75 10.4325V12Z" fill="#6893E8"/>
</g>
</svg>
