<svg width="28" height="28" viewBox="0 0 28 28" fill="none" xmlns="http://www.w3.org/2000/svg">
<g id="Icon">
<path id="Vector" d="M5.83334 24.5C5.19167 24.5 4.64217 24.2713 4.18484 23.814C3.7275 23.3567 3.49922 22.8076 3.5 22.1667V5.83334C3.5 5.19167 3.72867 4.64217 4.186 4.18484C4.64334 3.7275 5.19245 3.49922 5.83334 3.5H22.1667C22.8083 3.5 23.3578 3.72867 23.8152 4.186C24.2725 4.64334 24.5008 5.19245 24.5 5.83334V22.1667C24.5 22.8083 24.2713 23.3578 23.814 23.8152C23.3567 24.2725 22.8076 24.5008 22.1667 24.5H5.83334ZM8.16667 19.8333H14V17.5H8.16667V19.8333ZM9.33334 15.1667L14 12.8333L18.6667 15.1667V5.83334H9.33334V15.1667Z" fill="#1D5EDD"/>
</g>
</svg>
