<svg width="49" height="48" viewBox="0 0 49 48" fill="none" xmlns="http://www.w3.org/2000/svg">
<g id="clarity:avatar-solid" clip-path="url(#clip0_536_13602)">
<path id="Vector" d="M41.5646 32.6941C39.4222 30.3728 36.8222 28.5203 33.9286 27.2532C31.0349 25.9862 27.9102 25.332 24.7513 25.332C21.5924 25.332 18.4677 25.9862 15.574 27.2532C12.6804 28.5203 10.0804 30.3728 7.93797 32.6941C7.60719 33.0599 7.42216 33.5343 7.41797 34.0274V42.0274C7.42498 42.5532 7.63878 43.0551 8.0131 43.4244C8.38742 43.7938 8.89212 44.0008 9.41797 44.0008H40.0846C40.6151 44.0008 41.1238 43.7901 41.4988 43.415C41.8739 43.0399 42.0846 42.5312 42.0846 42.0008V34.0008C42.074 33.5169 41.8894 33.053 41.5646 32.6941Z" fill="#97B5EF"/>
<path id="Vector_2" d="M24.7513 22.6667C29.906 22.6667 34.0846 18.488 34.0846 13.3333C34.0846 8.17868 29.906 4 24.7513 4C19.5966 4 15.418 8.17868 15.418 13.3333C15.418 18.488 19.5966 22.6667 24.7513 22.6667Z" fill="#97B5EF"/>
</g>
<defs>
<clipPath id="clip0_536_13602">
<rect width="48" height="48" fill="white" transform="translate(0.75)"/>
</clipPath>
</defs>
</svg>
