<svg width="32" height="32" viewBox="0 0 32 32" fill="none" xmlns="http://www.w3.org/2000/svg">
    <rect x="0.5" y="0.5" width="31" height="31" rx="15.5" fill="#E8EFFC" />
    <rect x="0.5" y="0.5" width="31" height="31" rx="15.5" stroke="#6893E8" />
    <path
        d="M22.0549 17.2642C22.2478 17.1149 22.404 16.9234 22.5114 16.7044C22.6188 16.4855 22.6747 16.2448 22.6747 16.0009C22.6747 15.7569 22.6188 15.5163 22.5114 15.2973C22.404 15.0783 22.2478 14.8868 22.0549 14.7375C19.557 12.8047 16.7678 11.2813 13.7916 10.2242L13.2474 10.0309C12.2074 9.6617 11.1083 10.365 10.9674 11.4392C10.574 14.4676 10.574 17.5341 10.9674 20.5625C11.1091 21.6367 12.2074 22.34 13.2474 21.9709L13.7916 21.7775C16.7678 20.7205 19.557 19.197 22.0549 17.2642Z"
        fill="#1D5EDD" />
</svg>
    