<svg width="64" height="64" viewBox="0 0 64 64" fill="none" xmlns="http://www.w3.org/2000/svg">
    <rect x="1" y="1" width="62" height="62" rx="31" fill="#1D5EDD" />
    <rect x="1" y="1" width="62" height="62" rx="31" stroke="#97B5EF" stroke-width="2" />
    <path
        d="M40.0002 29.334H34.6668V24.0007C34.6668 23.2934 34.3859 22.6151 33.8858 22.115C33.3857 21.6149 32.7074 21.334 32.0002 21.334C31.2929 21.334 30.6146 21.6149 30.1145 22.115C29.6144 22.6151 29.3335 23.2934 29.3335 24.0007L29.4282 29.334H24.0002C23.2929 29.334 22.6146 29.6149 22.1145 30.115C21.6144 30.6151 21.3335 31.2934 21.3335 32.0007C21.3335 32.7079 21.6144 33.3862 22.1145 33.8863C22.6146 34.3864 23.2929 34.6673 24.0002 34.6673L29.4282 34.5726L29.3335 40.0007C29.3335 40.7079 29.6144 41.3862 30.1145 41.8863C30.6146 42.3864 31.2929 42.6673 32.0002 42.6673C32.7074 42.6673 33.3857 42.3864 33.8858 41.8863C34.3859 41.3862 34.6668 40.7079 34.6668 40.0007V34.5726L40.0002 34.6673C40.7074 34.6673 41.3857 34.3864 41.8858 33.8863C42.3859 33.3862 42.6668 32.7079 42.6668 32.0007C42.6668 31.2934 42.3859 30.6151 41.8858 30.115C41.3857 29.6149 40.7074 29.334 40.0002 29.334Z"
        fill="#E8EFFC" />
</svg>
    