<svg width="32" height="32" viewBox="0 0 32 32" fill="none" xmlns="http://www.w3.org/2000/svg">
<g id="Icon">
<path id="Union" fill-rule="evenodd" clip-rule="evenodd" d="M8 7.99935C8 7.26297 8.59695 6.66602 9.33333 6.66602H12C12.7364 6.66602 13.3333 7.26297 13.3333 7.99935V23.9993C13.3333 24.7357 12.7364 25.3327 12 25.3327H9.33333C8.59695 25.3327 8 24.7357 8 23.9993V7.99935ZM18.6667 7.99935C18.6667 7.26297 19.2636 6.66602 20 6.66602H22.6667C23.403 6.66602 24 7.26297 24 7.99935V23.9993C24 24.7357 23.403 25.3327 22.6667 25.3327H20C19.2636 25.3327 18.6667 24.7357 18.6667 23.9993V7.99935Z" fill="#00CEC8"/>
</g>
</svg>
