<svg width="61" height="60" viewBox="0 0 61 60" fill="none" xmlns="http://www.w3.org/2000/svg">
    <rect x="1" y="0.5" width="59" height="59" rx="29.5" fill="#E8EFFC"/>
    <rect x="1" y="0.5" width="59" height="59" rx="29.5" stroke="#1D5EDD"/>
    <path d="M30.4987 34.6663C33.0724 34.6663 35.1654 32.5722 35.1654 29.9997V22.9997C35.1654 20.426 33.0724 18.333 30.4987 18.333C27.925 18.333 25.832 20.426 25.832 22.9997V29.9997C25.832 32.5722 27.925 34.6663 30.4987 34.6663ZM38.6654 29.9997V27.6663C38.6654 27.3569 38.5424 27.0602 38.3237 26.8414C38.1049 26.6226 37.8081 26.4997 37.4987 26.4997C37.1893 26.4997 36.8925 26.6226 36.6737 26.8414C36.4549 27.0602 36.332 27.3569 36.332 27.6663V29.9997C36.332 33.2162 33.7152 35.833 30.4987 35.833C27.2822 35.833 24.6654 33.2162 24.6654 29.9997V27.6663C24.6654 27.3569 24.5424 27.0602 24.3237 26.8414C24.1049 26.6226 23.8081 26.4997 23.4987 26.4997C23.1893 26.4997 22.8925 26.6226 22.6737 26.8414C22.4549 27.0602 22.332 27.3569 22.332 27.6663V29.9997C22.332 34.1063 25.3805 37.5037 29.332 38.073V39.333H25.832C25.5226 39.333 25.2259 39.4559 25.0071 39.6747C24.7883 39.8935 24.6654 40.1903 24.6654 40.4997C24.6654 40.8091 24.7883 41.1058 25.0071 41.3246C25.2259 41.5434 25.5226 41.6663 25.832 41.6663H35.1654C35.4748 41.6663 35.7715 41.5434 35.9903 41.3246C36.2091 41.1058 36.332 40.8091 36.332 40.4997C36.332 40.1903 36.2091 39.8935 35.9903 39.6747C35.7715 39.4559 35.4748 39.333 35.1654 39.333H31.6654V38.073C35.6169 37.5037 38.6654 34.1063 38.6654 29.9997Z" fill="#1D5EDD"/>
    </svg>
    