<svg width="147" height="40" viewBox="0 0 147 40" fill="none" xmlns="http://www.w3.org/2000/svg">
<rect x="0.5" y="0.5" width="146" height="39" rx="19.5" fill="#1D5EDD"/>
<rect x="0.5" y="0.5" width="146" height="39" rx="19.5" stroke="#1D5EDD"/>
<path d="M40.6914 15.6387C40.8086 15.7559 40.875 15.9141 40.875 16.0801V28.125C40.875 28.4707 40.5957 28.75 40.25 28.75H27.75C27.4043 28.75 27.125 28.4707 27.125 28.125V11.875C27.125 11.5293 27.4043 11.25 27.75 11.25H36.0449C36.2109 11.25 36.3711 11.3164 36.4883 11.4336L40.6914 15.6387ZM39.4336 16.3672L35.7578 12.6914V16.3672H39.4336ZM36.3676 22.4465C36.0711 22.4367 35.7559 22.4596 35.3979 22.5043C34.9232 22.2115 34.6037 21.8094 34.3768 21.2186L34.3977 21.133L34.4219 21.0318C34.5059 20.6777 34.551 20.4193 34.5645 20.1588C34.5746 19.9621 34.5637 19.7807 34.5287 19.6125C34.4643 19.2494 34.2074 19.0371 33.8838 19.024C33.582 19.0117 33.3047 19.1803 33.2338 19.4414C33.1184 19.8637 33.1859 20.4193 33.4307 21.367C33.1189 22.1102 32.707 22.9814 32.4307 23.4674C32.0617 23.6576 31.7744 23.8307 31.533 24.0225C31.2146 24.2758 31.0158 24.5361 30.9611 24.8096C30.9346 24.9363 30.9746 25.102 31.0658 25.2377C31.1693 25.3916 31.3252 25.4916 31.5121 25.5061C31.9838 25.5426 32.5635 25.0563 33.2035 23.958C33.2678 23.9365 33.3357 23.9139 33.4187 23.8857L33.6512 23.8072C33.7982 23.7576 33.9049 23.7221 34.0104 23.6879C34.4674 23.5391 34.8131 23.4451 35.1275 23.3916C35.674 23.6842 36.3057 23.876 36.7311 23.876C37.0822 23.876 37.3195 23.6939 37.4053 23.4074C37.4805 23.1559 37.4209 22.8641 37.2592 22.7027C37.092 22.5385 36.7846 22.46 36.3676 22.4465ZM31.524 24.9547V24.9477L31.5266 24.941C31.5551 24.8671 31.5918 24.7967 31.6359 24.7309C31.7195 24.6023 31.8346 24.4672 31.9771 24.3232C32.0537 24.2461 32.1334 24.1709 32.227 24.0865C32.2479 24.0678 32.3814 23.9488 32.4064 23.9254L32.6246 23.7223L32.466 23.9748C32.2254 24.3584 32.0078 24.6346 31.8215 24.8146C31.7529 24.8811 31.6926 24.9299 31.6437 24.9613C31.6276 24.9721 31.6106 24.9814 31.5928 24.9891C31.5848 24.9924 31.5777 24.9943 31.5707 24.9949C31.5633 24.9959 31.5557 24.9949 31.5488 24.992C31.5415 24.9889 31.5352 24.9837 31.5308 24.9771C31.5264 24.9705 31.524 24.9627 31.524 24.9547ZM33.9838 20.6914L33.9396 20.7695L33.9123 20.684C33.8518 20.492 33.8072 20.2027 33.7949 19.9418C33.7809 19.6449 33.8045 19.4668 33.8982 19.4668C34.0299 19.4668 34.0902 19.6777 34.0949 19.9951C34.0992 20.274 34.0553 20.5643 33.9836 20.6914H33.9838ZM33.8703 21.8332L33.9002 21.7541L33.941 21.8283C34.1693 22.2432 34.4656 22.5893 34.7914 22.8305L34.8617 22.8824L34.776 22.9C34.457 22.966 34.16 23.0652 33.7537 23.2291C33.7961 23.2119 33.3314 23.4021 33.2139 23.4473L33.1113 23.4865L33.166 23.3912C33.4072 22.9713 33.6301 22.467 33.8701 21.8332H33.8703ZM36.9488 23.3227C36.7953 23.3832 36.4648 23.3291 35.883 23.0807L35.7354 23.0178L35.8955 23.0061C36.3506 22.9723 36.6729 22.9973 36.8607 23.066C36.9408 23.0953 36.9941 23.1322 37.0178 23.1744C37.0302 23.1944 37.0344 23.2184 37.0294 23.2414C37.0245 23.2644 37.0108 23.2846 36.9912 23.2977C36.9788 23.3086 36.9644 23.3171 36.9488 23.3227Z" fill="#E8EFFC"/>
<path d="M59.13 15.004C59.9887 15.004 60.6933 15.1113 61.244 15.326C61.7947 15.5407 62.2053 15.8627 62.476 16.292C62.7467 16.712 62.882 17.244 62.882 17.888C62.882 18.4013 62.784 18.8353 62.588 19.19C62.4013 19.5353 62.1587 19.82 61.86 20.044C61.5613 20.2587 61.2487 20.4313 60.922 20.562L63.722 25H61.986L59.578 20.954H57.842V25H56.33V15.004H59.13ZM59.032 16.292H57.842V19.694H59.102C59.6153 19.694 60.0353 19.6287 60.362 19.498C60.698 19.3673 60.9407 19.1713 61.09 18.91C61.2487 18.6487 61.328 18.3267 61.328 17.944C61.328 17.5427 61.244 17.2253 61.076 16.992C60.9173 16.7493 60.6653 16.572 60.32 16.46C59.984 16.348 59.5547 16.292 59.032 16.292ZM67.9894 17.314C68.652 17.314 69.2214 17.454 69.6974 17.734C70.1734 18.0047 70.5374 18.3967 70.7894 18.91C71.0507 19.4233 71.1814 20.03 71.1814 20.73V21.542H66.1134C66.132 22.3167 66.3327 22.9093 66.7154 23.32C67.1074 23.7307 67.6534 23.936 68.3534 23.936C68.8387 23.936 69.268 23.894 69.6414 23.81C70.024 23.7167 70.416 23.5813 70.8174 23.404V24.636C70.444 24.804 70.0614 24.93 69.6694 25.014C69.2867 25.098 68.8294 25.14 68.2974 25.14C67.5694 25.14 66.9254 24.9953 66.3654 24.706C65.8054 24.4167 65.3667 23.9873 65.0494 23.418C64.7414 22.8393 64.5874 22.13 64.5874 21.29C64.5874 20.4407 64.7274 19.722 65.0074 19.134C65.2967 18.546 65.6934 18.098 66.1974 17.79C66.7107 17.4727 67.308 17.314 67.9894 17.314ZM67.9894 18.462C67.4574 18.462 67.028 18.6347 66.7014 18.98C66.384 19.3253 66.1974 19.8153 66.1414 20.45H69.6974C69.6974 20.058 69.6367 19.7127 69.5154 19.414C69.394 19.1153 69.2074 18.882 68.9554 18.714C68.7034 18.546 68.3814 18.462 67.9894 18.462ZM74.4537 25L71.5977 17.454H73.1657L74.7337 21.864C74.799 22.0507 74.8643 22.2607 74.9297 22.494C75.0043 22.7273 75.0697 22.9513 75.1257 23.166C75.1817 23.3807 75.219 23.5673 75.2377 23.726H75.2937C75.3217 23.5673 75.3637 23.3807 75.4197 23.166C75.485 22.942 75.555 22.718 75.6297 22.494C75.7043 22.2607 75.7697 22.0507 75.8257 21.864L77.3937 17.454H78.9617L76.0917 25H74.4537ZM81.6128 17.454V25H80.1288V17.454H81.6128ZM80.8848 14.584C81.1088 14.584 81.3048 14.6493 81.4728 14.78C81.6408 14.9107 81.7248 15.13 81.7248 15.438C81.7248 15.7367 81.6408 15.956 81.4728 16.096C81.3048 16.2267 81.1088 16.292 80.8848 16.292C80.6421 16.292 80.4368 16.2267 80.2688 16.096C80.1101 15.956 80.0308 15.7367 80.0308 15.438C80.0308 15.13 80.1101 14.9107 80.2688 14.78C80.4368 14.6493 80.6421 14.584 80.8848 14.584ZM86.9113 17.314C87.5739 17.314 88.1433 17.454 88.6193 17.734C89.0953 18.0047 89.4593 18.3967 89.7113 18.91C89.9726 19.4233 90.1033 20.03 90.1033 20.73V21.542H85.0353C85.0539 22.3167 85.2546 22.9093 85.6373 23.32C86.0293 23.7307 86.5753 23.936 87.2753 23.936C87.7606 23.936 88.1899 23.894 88.5633 23.81C88.9459 23.7167 89.3379 23.5813 89.7393 23.404V24.636C89.3659 24.804 88.9833 24.93 88.5913 25.014C88.2086 25.098 87.7513 25.14 87.2193 25.14C86.4913 25.14 85.8473 24.9953 85.2873 24.706C84.7273 24.4167 84.2886 23.9873 83.9713 23.418C83.6633 22.8393 83.5093 22.13 83.5093 21.29C83.5093 20.4407 83.6493 19.722 83.9293 19.134C84.2186 18.546 84.6153 18.098 85.1193 17.79C85.6326 17.4727 86.2299 17.314 86.9113 17.314ZM86.9113 18.462C86.3793 18.462 85.9499 18.6347 85.6233 18.98C85.3059 19.3253 85.1193 19.8153 85.0633 20.45H88.6193C88.6193 20.058 88.5586 19.7127 88.4373 19.414C88.3159 19.1153 88.1293 18.882 87.8773 18.714C87.6253 18.546 87.3033 18.462 86.9113 18.462ZM96.7775 21.22C96.7309 21.0333 96.6749 20.828 96.6095 20.604C96.5535 20.38 96.4975 20.156 96.4415 19.932C96.3855 19.6987 96.3342 19.484 96.2875 19.288C96.2409 19.092 96.2035 18.938 96.1755 18.826H96.1195C96.1009 18.938 96.0682 19.092 96.0215 19.288C95.9842 19.484 95.9375 19.6987 95.8815 19.932C95.8255 20.156 95.7695 20.3847 95.7135 20.618C95.6575 20.842 95.5969 21.0473 95.5315 21.234L94.4115 24.986H92.7595L90.6735 17.44H92.1855L93.1655 21.262C93.2402 21.5233 93.3055 21.7987 93.3615 22.088C93.4269 22.3773 93.4829 22.6573 93.5295 22.928C93.5855 23.1893 93.6229 23.4087 93.6415 23.586H93.6975C93.7162 23.4647 93.7442 23.3153 93.7815 23.138C93.8189 22.9513 93.8562 22.76 93.8935 22.564C93.9402 22.3587 93.9822 22.1627 94.0195 21.976C94.0662 21.7893 94.1129 21.6353 94.1595 21.514L95.3635 17.44H96.9875L98.1635 21.514C98.2195 21.7007 98.2802 21.9247 98.3455 22.186C98.4109 22.438 98.4669 22.69 98.5135 22.942C98.5695 23.1847 98.6069 23.3947 98.6255 23.572H98.6815C98.7002 23.4133 98.7329 23.208 98.7795 22.956C98.8262 22.6947 98.8822 22.4147 98.9475 22.116C99.0222 21.8173 99.0922 21.5327 99.1575 21.262L100.166 17.44H101.664L99.5495 24.986H97.8555L96.7775 21.22ZM111.049 16.166C110.555 16.166 110.111 16.2547 109.719 16.432C109.327 16.6 108.991 16.852 108.711 17.188C108.441 17.524 108.231 17.93 108.081 18.406C107.941 18.882 107.871 19.4187 107.871 20.016C107.871 20.8 107.988 21.4813 108.221 22.06C108.455 22.6293 108.805 23.068 109.271 23.376C109.738 23.684 110.326 23.838 111.035 23.838C111.465 23.838 111.875 23.8007 112.267 23.726C112.669 23.642 113.075 23.5347 113.485 23.404V24.706C113.093 24.8553 112.692 24.9627 112.281 25.028C111.871 25.1027 111.395 25.14 110.853 25.14C109.836 25.14 108.987 24.93 108.305 24.51C107.633 24.09 107.129 23.4927 106.793 22.718C106.457 21.9433 106.289 21.038 106.289 20.002C106.289 19.246 106.392 18.5553 106.597 17.93C106.812 17.2953 107.12 16.7493 107.521 16.292C107.923 15.8347 108.417 15.4847 109.005 15.242C109.603 14.99 110.289 14.864 111.063 14.864C111.567 14.864 112.062 14.92 112.547 15.032C113.033 15.1347 113.471 15.284 113.863 15.48L113.303 16.74C112.977 16.5907 112.622 16.46 112.239 16.348C111.866 16.2267 111.469 16.166 111.049 16.166ZM122.919 15.004L119.391 25H117.823L114.309 15.004H115.863L118.005 21.276C118.089 21.5 118.168 21.7427 118.243 22.004C118.317 22.256 118.387 22.508 118.453 22.76C118.518 23.012 118.569 23.25 118.607 23.474C118.653 23.25 118.705 23.012 118.761 22.76C118.826 22.508 118.896 22.2513 118.971 21.99C119.055 21.7287 119.134 21.486 119.209 21.262L121.351 15.004H122.919Z" fill="#E8EFFC"/>
</svg>
