<svg xmlns="http://www.w3.org/2000/svg" width="17" height="16" viewBox="0 0 17 16" fill="none">
    <g id="Icon">
        <path id="Vector" d="M14.605 1.19966C15.0099 1.42641 15.3081 1.80467 15.4342 2.25127C15.5602 2.69786 15.5037 3.17623 15.277 3.58116L9.52204 13.8582C9.37629 14.1185 9.17413 14.343 8.93038 14.515C8.68663 14.6871 8.40747 14.8025 8.11334 14.8527C7.81922 14.9029 7.51759 14.8866 7.23057 14.8051C6.94354 14.7236 6.67839 14.5789 6.45454 14.3817L2.09304 10.5397C1.74481 10.2328 1.53274 9.80019 1.50348 9.33697C1.47423 8.87376 1.63018 8.41789 1.93704 8.06966C2.24389 7.72143 2.67651 7.50936 3.13973 7.48011C3.60294 7.45085 4.05881 7.60681 4.40704 7.91366L7.37504 10.5287L12.223 1.87166C12.3353 1.67113 12.486 1.49467 12.6665 1.35237C12.8469 1.21007 13.0537 1.10471 13.2749 1.0423C13.496 0.979902 13.7274 0.961681 13.9556 0.988681C14.1838 1.01568 14.4045 1.08737 14.605 1.19966Z" />
    </g>
</svg>