<svg width="28" height="28" viewBox="0 0 28 28" fill="none" xmlns="http://www.w3.org/2000/svg">
<g id="Icon">
<path id="Vector" fill-rule="evenodd" clip-rule="evenodd" d="M16.6592 2.51132C16.2275 2.33398 15.6792 2.33398 14.5837 2.33398C13.4882 2.33398 12.9399 2.33398 12.5082 2.51132C11.9336 2.74723 11.4761 3.20171 11.2365 3.77482C11.1269 4.03498 11.0849 4.33948 11.0674 4.78165C11.0596 5.10202 10.9702 5.41511 10.8077 5.69132C10.6452 5.96753 10.415 6.19773 10.1387 6.36015C9.85724 6.5166 9.54084 6.59949 9.21881 6.60112C8.89679 6.60275 8.57957 6.52308 8.29654 6.36948C7.9022 6.16182 7.61637 6.04748 7.33403 6.01015C6.71635 5.92905 6.09162 6.09508 5.5957 6.47215C5.2247 6.75448 4.95053 7.22582 4.40337 8.16732C3.85503 9.10882 3.58203 9.57898 3.5202 10.0398C3.43853 10.6535 3.60653 11.2741 3.98687 11.7653C4.15953 11.9893 4.40337 12.1772 4.7802 12.4128C5.3367 12.7593 5.6937 13.3497 5.6937 14.0007C5.6937 14.6517 5.3367 15.242 4.78137 15.5873C4.40337 15.8242 4.15953 16.012 3.9857 16.236C3.79796 16.4786 3.66017 16.756 3.58027 17.0521C3.50037 17.3483 3.47995 17.6574 3.5202 17.9615C3.58203 18.4212 3.85503 18.8925 4.40337 19.834C4.9517 20.7755 5.2247 21.2456 5.5957 21.5292C6.09037 21.906 6.7157 22.0717 7.33403 21.9912C7.61637 21.9538 7.9022 21.8395 8.29654 21.6318C8.57971 21.478 8.89715 21.3982 9.2194 21.3999C9.54165 21.4015 9.85826 21.4845 10.1399 21.6411C10.7069 21.9678 11.0429 22.5687 11.0674 23.2197C11.0849 23.663 11.1269 23.9663 11.2365 24.2265C11.4745 24.7981 11.9319 25.2531 12.5082 25.49C12.9399 25.6673 13.4882 25.6673 14.5837 25.6673C15.6792 25.6673 16.2275 25.6673 16.6592 25.49C17.2338 25.2541 17.6913 24.7996 17.9309 24.2265C18.0405 23.9663 18.0825 23.663 18.1 23.2197C18.1234 22.5687 18.4605 21.9667 19.0287 21.6411C19.3102 21.4847 19.6266 21.4018 19.9486 21.4002C20.2706 21.3986 20.5878 21.4782 20.8709 21.6318C21.2652 21.8395 21.551 21.9538 21.8334 21.9912C22.4517 22.0728 23.077 21.906 23.5717 21.5292C23.9427 21.2468 24.2169 20.7755 24.764 19.834C25.3124 18.8925 25.5854 18.4223 25.6472 17.9615C25.6873 17.6573 25.6667 17.3482 25.5866 17.052C25.5065 16.7559 25.3685 16.4785 25.1805 16.236C25.0079 16.012 24.764 15.8242 24.3872 15.5885C23.8307 15.242 23.4737 14.6517 23.4737 14.0007C23.4737 13.3497 23.8307 12.7593 24.386 12.414C24.764 12.1772 25.0079 11.9893 25.1817 11.7653C25.3694 11.5227 25.5072 11.2453 25.5871 10.9492C25.667 10.653 25.6874 10.3439 25.6472 10.0398C25.5854 9.58015 25.3124 9.10882 24.764 8.16732C24.2157 7.22582 23.9427 6.75565 23.5717 6.47215C23.0758 6.09508 22.4511 5.92905 21.8334 6.01015C21.551 6.04748 21.2652 6.16182 20.8709 6.36948C20.5877 6.52328 20.2702 6.60307 19.948 6.60144C19.6258 6.59981 19.3091 6.51681 19.0275 6.36015C18.7515 6.19759 18.5215 5.96733 18.3592 5.69113C18.1969 5.41493 18.1077 5.10191 18.1 4.78165C18.0825 4.33832 18.0405 4.03498 17.9309 3.77482C17.8123 3.49101 17.6389 3.23335 17.4207 3.01655C17.2025 2.79976 16.9438 2.62808 16.6592 2.51132ZM14.5837 17.5007C16.532 17.5007 18.1105 15.9338 18.1105 14.0007C18.1105 12.0675 16.5309 10.5007 14.5837 10.5007C12.6354 10.5007 11.0569 12.0675 11.0569 14.0007C11.0569 15.9338 12.6365 17.5007 14.5837 17.5007Z" fill="#1D5EDD"/>
</g>
</svg>
