<svg width="16" height="15" viewBox="0 0 16 15" fill="none" xmlns="http://www.w3.org/2000/svg">
<path id="Star 1" d="M7.04894 0.800097C7.3483 -0.121214 8.6517 -0.121213 8.95106 0.800097L10.0206 4.09189C10.1545 4.50392 10.5385 4.78288 10.9717 4.78288H14.4329C15.4016 4.78288 15.8044 6.02249 15.0207 6.59189L12.2205 8.62634C11.87 8.88098 11.7234 9.33235 11.8572 9.74437L12.9268 13.0362C13.2261 13.9575 12.1717 14.7236 11.388 14.1542L8.58778 12.1198C8.2373 11.8651 7.7627 11.8651 7.41221 12.1198L4.61204 14.1542C3.82833 14.7236 2.77385 13.9575 3.0732 13.0362L4.14277 9.74437C4.27665 9.33235 4.12999 8.88098 3.7795 8.62634L0.979333 6.59189C0.195619 6.02249 0.598395 4.78288 1.56712 4.78288H5.02832C5.46154 4.78288 5.8455 4.50392 5.97937 4.09189L7.04894 0.800097Z" fill="#EDBC33"/>
</svg>
