<svg width="29" height="28" viewBox="0 0 29 28" fill="none" xmlns="http://www.w3.org/2000/svg">
    <rect x="0.6" y="0.1" width="27.8" height="27.8" rx="13.9" fill="#FDF7E6"/>
    <rect x="0.6" y="0.1" width="27.8" height="27.8" rx="13.9" stroke="#E8AB00" stroke-width="0.2"/>
    <path d="M18.2734 13.4667C18.12 13.2667 17.9334 13.0933 17.76 12.92C17.3134 12.52 16.8067 12.2333 16.38 11.8133C15.3867 10.84 15.1667 9.23333 15.8 8C15.1667 8.15333 14.6134 8.5 14.14 8.88C12.4134 10.2667 11.7334 12.7133 12.5467 14.8133C12.5734 14.88 12.6 14.9467 12.6 15.0333C12.6 15.18 12.5 15.3133 12.3667 15.3667C12.2134 15.4333 12.0534 15.3933 11.9267 15.2867C11.8886 15.2552 11.857 15.2167 11.8334 15.1733C11.08 14.22 10.96 12.8533 11.4667 11.76C10.3534 12.6667 9.7467 14.2 9.83337 15.6467C9.87337 15.98 9.91337 16.3133 10.0267 16.6467C10.12 17.0467 10.3 17.4467 10.5 17.8C11.22 18.9533 12.4667 19.78 13.8067 19.9467C15.2334 20.1267 16.76 19.8667 17.8534 18.88C19.0734 17.7733 19.5 16 18.8734 14.48L18.7867 14.3067C18.6467 14 18.2734 13.4667 18.2734 13.4667ZM16.1667 17.6667C15.98 17.8267 15.6734 18 15.4334 18.0667C14.6867 18.3333 13.94 17.96 13.5 17.52C14.2934 17.3333 14.7667 16.7467 14.9067 16.1533C15.02 15.62 14.8067 15.18 14.72 14.6667C14.64 14.1733 14.6534 13.7533 14.8334 13.2933C14.96 13.5467 15.0934 13.8 15.2534 14C15.7667 14.6667 16.5734 14.96 16.7467 15.8667C16.7734 15.96 16.7867 16.0533 16.7867 16.1533C16.8067 16.7 16.5667 17.3 16.1667 17.6667Z" fill="#E8AB00"/>
    </svg>
    