<svg width="65" height="64" viewBox="0 0 65 64" fill="none" xmlns="http://www.w3.org/2000/svg">
<g id="Icon">
<path id="Vector" d="M51.8773 36.0423C52.4946 35.5646 52.9943 34.9518 53.338 34.2511C53.6818 33.5503 53.8605 32.7802 53.8605 31.9996C53.8605 31.2191 53.6818 30.4489 53.338 29.7482C52.9943 29.0474 52.4946 28.4347 51.8773 27.957C43.8841 21.772 34.9585 16.8969 25.4347 13.5143L23.6933 12.8956C20.3653 11.7143 16.848 13.965 16.3973 17.4023C15.1384 27.0931 15.1384 36.9061 16.3973 46.597C16.8507 50.0343 20.3653 52.285 23.6933 51.1036L25.4347 50.485C34.9585 47.1023 43.8841 42.2273 51.8773 36.0423Z" fill="#1D5EDD"/>
</g>
</svg>
