<svg width="7" height="6" viewBox="0 0 7 6" fill="none" xmlns="http://www.w3.org/2000/svg">
<g id="Icon">
<path id="Vector" d="M3.25 4C3.8015 4 4.25 3.55125 4.25 3V1.5C4.25 0.9485 3.8015 0.5 3.25 0.5C2.6985 0.5 2.25 0.9485 2.25 1.5V3C2.25 3.55125 2.6985 4 3.25 4ZM5 3V2.5C5 2.4337 4.97366 2.37011 4.92678 2.32322C4.87989 2.27634 4.8163 2.25 4.75 2.25C4.6837 2.25 4.62011 2.27634 4.57322 2.32322C4.52634 2.37011 4.5 2.4337 4.5 2.5V3C4.5 3.68925 3.93925 4.25 3.25 4.25C2.56075 4.25 2 3.68925 2 3V2.5C2 2.4337 1.97366 2.37011 1.92678 2.32322C1.87989 2.27634 1.8163 2.25 1.75 2.25C1.6837 2.25 1.62011 2.27634 1.57322 2.32322C1.52634 2.37011 1.5 2.4337 1.5 2.5V3C1.5 3.88 2.15325 4.608 3 4.73V5H2.25C2.1837 5 2.12011 5.02634 2.07322 5.07322C2.02634 5.12011 2 5.1837 2 5.25C2 5.3163 2.02634 5.37989 2.07322 5.42678C2.12011 5.47366 2.1837 5.5 2.25 5.5H4.25C4.3163 5.5 4.37989 5.47366 4.42678 5.42678C4.47366 5.37989 4.5 5.3163 4.5 5.25C4.5 5.1837 4.47366 5.12011 4.42678 5.07322C4.37989 5.02634 4.3163 5 4.25 5H3.5V4.73C4.34675 4.608 5 3.88 5 3Z" fill="#1D5EDD"/>
</g>
</svg>
