<svg width="161" height="40" viewBox="0 0 161 40" fill="none" xmlns="http://www.w3.org/2000/svg">
<g id="Frame 270" clip-path="url(#clip0_488_12749)">
<g id="Group 16">
<path id="Line (Stroke)" fill-rule="evenodd" clip-rule="evenodd" d="M2.36009 31.2773C1.05665 31.2773 0 30.2207 0 28.9173L0 11.0821C0 9.77863 1.05665 8.72198 2.36009 8.72198C3.66353 8.72198 4.72017 9.77863 4.72017 11.0821L4.72017 28.9173C4.72017 30.2207 3.66353 31.2773 2.36009 31.2773Z" fill="#1D5EDD"/>
<path id="Line (Stroke)_2" fill-rule="evenodd" clip-rule="evenodd" d="M11.7995 30.4844C10.4961 30.4844 9.43945 29.4277 9.43945 28.1243L9.43945 11.8778C9.43945 10.5744 10.4961 9.51776 11.7995 9.51776C13.103 9.51776 14.1596 10.5744 14.1596 11.8778V28.1243C14.1596 29.4277 13.103 30.4844 11.7995 30.4844Z" fill="#1D5EDD"/>
<path id="Line (Stroke)_3" fill-rule="evenodd" clip-rule="evenodd" d="M21.2409 35.9258C19.9375 35.9258 18.8809 34.8691 18.8809 33.5657L18.8809 6.43633C18.8809 5.13289 19.9375 4.07625 21.2409 4.07625C22.5444 4.07625 23.601 5.13289 23.601 6.43633V33.5657C23.601 34.8691 22.5444 35.9258 21.2409 35.9258Z" fill="#1D5EDD"/>
<path id="Line (Stroke)_4" fill-rule="evenodd" clip-rule="evenodd" d="M30.6804 35.5605C29.377 35.5605 28.3203 34.5039 28.3203 33.2005V6.79951C28.3203 5.49607 29.377 4.43943 30.6804 4.43943C31.9838 4.43943 33.0405 5.49607 33.0405 6.79951V33.2005C33.0405 34.5039 31.9838 35.5605 30.6804 35.5605Z" fill="#1D5EDD"/>
<path id="Line (Stroke)_5" fill-rule="evenodd" clip-rule="evenodd" d="M40.1218 33.6953C38.8184 33.6953 37.7617 32.6387 37.7617 31.3352V8.6649C37.7617 7.36146 38.8184 6.30482 40.1218 6.30482C41.4252 6.30482 42.4819 7.36146 42.4819 8.6649V31.3352C42.4819 32.6387 41.4252 33.6953 40.1218 33.6953Z" fill="#1D5EDD"/>
<path id="Line (Stroke)_6" fill-rule="evenodd" clip-rule="evenodd" d="M49.5613 29.916C48.2578 29.916 47.2012 28.8594 47.2012 27.5559V12.4446C47.2012 11.1411 48.2578 10.0845 49.5613 10.0845C50.8647 10.0845 51.9213 11.1411 51.9213 12.4446V27.5559C51.9213 28.8594 50.8647 29.916 49.5613 29.916Z" fill="#1D5EDD"/>
<path id="Line (Stroke)_7" fill-rule="evenodd" clip-rule="evenodd" d="M59.0027 27.2324C57.6992 27.2324 56.6426 26.1758 56.6426 24.8723V15.1264C56.6426 13.823 57.6992 12.7663 59.0027 12.7663C60.3061 12.7663 61.3628 13.823 61.3628 15.1264V24.8723C61.3628 26.1758 60.3061 27.2324 59.0027 27.2324Z" fill="#1D5EDD"/>
<path id="Line (Stroke)_8" fill-rule="evenodd" clip-rule="evenodd" d="M68.4421 27.75C67.1387 27.75 66.082 26.6934 66.082 25.3899V14.6119C66.082 13.3085 67.1387 12.2519 68.4421 12.2519C69.7456 12.2519 70.8022 13.3085 70.8022 14.6119V25.3899C70.8022 26.6934 69.7456 27.75 68.4421 27.75Z" fill="#1D5EDD"/>
<path id="Line (Stroke)_9" fill-rule="evenodd" clip-rule="evenodd" d="M77.8835 25.1953C76.5801 25.1953 75.5234 24.1387 75.5234 22.8352V17.1651C75.5234 15.8616 76.5801 14.805 77.8835 14.805C79.187 14.805 80.2436 15.8616 80.2436 17.1651V22.8352C80.2436 24.1387 79.187 25.1953 77.8835 25.1953Z" fill="#1D5EDD"/>
<path id="Line (Stroke)_10" fill-rule="evenodd" clip-rule="evenodd" d="M87.323 35.166C86.0195 35.166 84.9629 34.1094 84.9629 32.8059V7.19356C84.9629 5.89012 86.0195 4.83348 87.323 4.83348C88.6264 4.83348 89.6831 5.89012 89.6831 7.19356V32.8059C89.6831 34.1094 88.6264 35.166 87.323 35.166Z" fill="#1D5EDD"/>
<path id="Line (Stroke)_11" fill-rule="evenodd" clip-rule="evenodd" d="M96.7644 39.7754C95.4609 39.7754 94.4043 38.7187 94.4043 37.4153V2.58439C94.4043 1.28095 95.4609 0.2243 96.7644 0.2243C98.0678 0.2243 99.1245 1.28095 99.1245 2.58439V37.4153C99.1245 38.7187 98.0678 39.7754 96.7644 39.7754Z" fill="#1D5EDD"/>
<path id="Line (Stroke)_12" fill-rule="evenodd" clip-rule="evenodd" d="M106.204 29.4629C104.9 29.4629 103.844 28.4062 103.844 27.1028V12.8971C103.844 11.5937 104.9 10.537 106.204 10.537C107.507 10.537 108.564 11.5937 108.564 12.8971V27.1028C108.564 28.4062 107.507 29.4629 106.204 29.4629Z" fill="#1D5EDD"/>
<path id="Line (Stroke)_13" fill-rule="evenodd" clip-rule="evenodd" d="M115.645 26.9473C114.342 26.9473 113.285 25.8906 113.285 24.5872V15.4128C113.285 14.1094 114.342 13.0527 115.645 13.0527C116.949 13.0527 118.005 14.1094 118.005 15.4128V24.5872C118.005 25.8906 116.949 26.9473 115.645 26.9473Z" fill="#1D5EDD"/>
<path id="Line (Stroke)_14" fill-rule="evenodd" clip-rule="evenodd" d="M125.085 40C123.781 40 122.725 38.9434 122.725 37.6399V2.36008C122.725 1.05665 123.781 0 125.085 0C126.388 0 127.445 1.05665 127.445 2.36008V37.6399C127.445 38.9434 126.388 40 125.085 40Z" fill="#1D5EDD"/>
<path id="Line (Stroke)_15" fill-rule="evenodd" clip-rule="evenodd" d="M134.524 25.1016C133.221 25.1016 132.164 24.0449 132.164 22.7415V17.2602C132.164 15.9567 133.221 14.9001 134.524 14.9001C135.828 14.9001 136.884 15.9567 136.884 17.2602V22.7415C136.884 24.0449 135.828 25.1016 134.524 25.1016Z" fill="#1D5EDD"/>
<path id="Line (Stroke)_16" fill-rule="evenodd" clip-rule="evenodd" d="M143.966 30.6543C142.662 30.6543 141.605 29.5977 141.605 28.2942V11.7075C141.605 10.404 142.662 9.34737 143.966 9.34737C145.269 9.34737 146.326 10.404 146.326 11.7075V28.2942C146.326 29.5977 145.269 30.6543 143.966 30.6543Z" fill="#B9CDF4"/>
<path id="Line (Stroke)_17" fill-rule="evenodd" clip-rule="evenodd" d="M153.405 37.2656C152.102 37.2656 151.045 36.209 151.045 34.9055V5.09314C151.045 3.7897 152.102 2.73305 153.405 2.73305C154.708 2.73305 155.765 3.7897 155.765 5.09314V34.9055C155.765 36.209 154.708 37.2656 153.405 37.2656Z" fill="#B9CDF4"/>
<path id="Line (Stroke)_18" fill-rule="evenodd" clip-rule="evenodd" d="M162.846 26.1133C161.543 26.1133 160.486 25.0566 160.486 23.7532V16.2455C160.486 14.9421 161.543 13.8854 162.846 13.8854C164.15 13.8854 165.207 14.9421 165.207 16.2455V23.7532C165.207 25.0566 164.15 26.1133 162.846 26.1133Z" fill="#B9CDF4"/>
</g>
</g>
<defs>
<clipPath id="clip0_488_12749">
<rect width="161" height="40" fill="white"/>
</clipPath>
</defs>
</svg>
